<svg width="297" height="297" xmlns="http://www.w3.org/2000/svg" xmlns:xlink="http://www.w3.org/1999/xlink" overflow="hidden"><defs><clipPath id="clip0"><rect x="391" y="312" width="297" height="297"/></clipPath></defs><g clip-path="url(#clip0)" transform="translate(-391 -312)"><path d="M524.031 340.865C519.298 341.36 502.375 362.768 507.542 371.802 514.936 384.703 531.456 382.816 541.263 381.269 551.071 379.722 552.061 374.525 558.248 378.175 564.436 381.826 578.172 395.036 579.193 406.39 580.214 417.744 580.678 442.958 582.812 451.745 584.947 460.531 589 474.051 584.916 476.99 579.471 480.795 566.013 467.275 546.09 467.275 524.433 467.275 515.152 484.229 510.666 484.229 504.479 484.229 498.291 473.679 477.254 473.679 452.504 473.679 437.963 498.986 437.963 498.986L437.963 564.728C437.963 564.728 456.773 583.879 479.976 583.879 496.311 583.879 510.047 572.648 517.875 571.504 525.702 570.359 542.068 575.062 552.834 573.267 577.584 569.122 599.24 550.064 612.605 541.278 625.97 532.492 646.234 521.849 650.875 516.713 655.516 511.578 649.854 479.588 635.406 440.391 620.958 401.193 587.453 356.333 578.698 350.672 569.943 345.01 538.974 339.318 524.031 340.865Z" fill="#FFFFFF"/></g></svg>