<svg width="96" height="96" xmlns="http://www.w3.org/2000/svg" xmlns:xlink="http://www.w3.org/1999/xlink" overflow="hidden"><defs><clipPath id="clip0"><rect x="814" y="321" width="96" height="96"/></clipPath></defs><g clip-path="url(#clip0)" transform="translate(-814 -321)"><path d="M862 401C844.4 401 830 386.6 830 369 830 351.4 844.4 337 862 337 879.6 337 894 351.4 894 369 894 386.6 879.6 401 862 401ZM862 331C841 331 824 348 824 369 824 390 841 407 862 407 883 407 900 390 900 369 900 348 883 331 862 331Z" fill="#FFFFFF"/><path d="M864 349 860 349 860 369C860 369.6 860.2 370.1 860.6 370.4L874.7 384.5 877.5 381.7 864 368.2 864 349Z" fill="#FFFFFF"/><path d="M864 343C864 344.105 863.105 345 862 345 860.895 345 860 344.105 860 343 860 341.895 860.895 341 862 341 863.105 341 864 341.895 864 343Z" fill="#FFFFFF"/><path d="M864 395C864 396.105 863.105 397 862 397 860.895 397 860 396.105 860 395 860 393.895 860.895 393 862 393 863.105 393 864 393.895 864 395Z" fill="#FFFFFF"/><path d="M838 369C838 370.105 837.105 371 836 371 834.895 371 834 370.105 834 369 834 367.895 834.895 367 836 367 837.105 367 838 367.895 838 369Z" fill="#FFFFFF"/><path d="M890 369C890 370.105 889.105 371 888 371 886.895 371 886 370.105 886 369 886 367.895 886.895 367 888 367 889.105 367 890 367.895 890 369Z" fill="#FFFFFF"/></g></svg>