<?xml version="1.0" encoding="utf-8"?>
<!-- Generator: Adobe Illustrator 24.1.3, SVG Export Plug-In . SVG Version: 6.00 Build 0)  -->
<svg version="1.1" id="Ebene_1" xmlns="http://www.w3.org/2000/svg" xmlns:xlink="http://www.w3.org/1999/xlink" x="0px" y="0px"
	 viewBox="0 0 800 800" style="enable-background:new 0 0 800 800;" xml:space="preserve">
<style type="text/css">
	.st0{fill-rule:evenodd;clip-rule:evenodd;fill:#FFFFFF;}
</style>
<g>
	<path class="st0" d="M0,532.7c0,20.1,16.4,36.5,36.4,36.5c7.3,0,13.6-1.8,19.1-5.5l155.5-89.4c-1.8-10-1.8-20.1,0-31
		c7.3-33.7,39.1-57.4,73.6-57.4h160.9v36.5H281.8c-20,0-36.4,16.4-36.4,36.5c0,20.1,16.4,36.5,36.4,36.5c0,0,216.4,0,218.2,0
		c15.5,0,30-4.6,42.7-11.9l257.3-124L672.7,231.8c-59.1,59.3-135.5,82.1-218.2,82.1h-170c-8.2,0-15.5,2.7-21.8,7.3L13.6,504.4
		C5.5,511.7,0,521.7,0,532.7L0,532.7z"/>
</g>
</svg>
