<svg width="96" height="96" xmlns="http://www.w3.org/2000/svg" xmlns:xlink="http://www.w3.org/1999/xlink" overflow="hidden"><defs><clipPath id="clip0"><rect x="814" y="413" width="96" height="96"/></clipPath></defs><g clip-path="url(#clip0)" transform="translate(-814 -413)"><path d="M864.1 441.6C865 440.8 865.3 439.6 864.9 438.5 864.5 437.4 863.5 436.7 862.3 436.7L853.1 436.7C851.9 436.7 850.9 435.9 850.5 434.8L847.6 425.9C847.2 424.8 846.2 424 845 424 843.8 424 842.8 424.8 842.4 425.9L839.5 434.8C839.1 435.9 838.1 436.7 836.9 436.7L827.7 436.7C826.6 436.7 825.5 437.4 825.1 438.5 824.7 439.6 825 440.8 825.9 441.6L829.1 444.5 833.2 448.1C833.6 448.5 833.9 448.9 834 449.4 834.1 449.9 834.1 450.5 834 451L831.2 460.4C830.8 461.5 831.2 462.7 832.2 463.4 833.1 464.1 834.4 464.1 835.4 463.5L843.4 457.9C844.3 457.2 845.6 457.2 846.5 457.9L854.5 463.5C855.5 464.2 856.7 464.1 857.7 463.4 858.6 462.7 859 461.5 858.7 460.4L856 451C855.7 450 856 448.8 856.8 448.1L864.1 441.6Z" fill="#FFFFFF"/><path d="M898.2 456.1C898.9 455.5 899.1 454.5 898.8 453.7 898.5 452.8 897.7 452.3 896.8 452.2L889.5 452.2C888.6 452.2 887.7 451.6 887.4 450.7L885.1 443.5C884.8 442.6 884 442 883 442 882.1 442 881.2 442.6 880.9 443.5L878.6 450.7C878.3 451.6 877.5 452.2 876.5 452.2L869.2 452.2C868.3 452.2 867.5 452.8 867.2 453.7 866.9 454.6 867.1 455.5 867.8 456.1L870.4 458.4 873.7 461.3C874 461.6 874.2 462 874.4 462.4 874.5 462.8 874.5 463.2 874.4 463.7L872 471.1C871.7 472 872 473 872.8 473.5 873.6 474.1 874.6 474.1 875.3 473.5L881.7 469C882.4 468.5 883.4 468.5 884.2 469L890.6 473.5C891.4 474.1 892.4 474.1 893.2 473.5 894 472.9 894.3 471.9 894 471L891.8 463.5C891.6 462.7 891.8 461.8 892.5 461.2L898.2 456.1Z" fill="#FFFFFF"/><path d="M870.4 484.6C870.9 484.1 871.1 483.4 870.9 482.8 870.7 482.2 870 481.7 869.4 481.7L863.9 481.7C863.2 481.7 862.6 481.2 862.4 480.6L860.6 475.2C860.3 474.5 859.7 474 859 474 858.3 474 857.7 474.5 857.4 475.1L855.6 480.5C855.4 481.2 854.8 481.6 854.1 481.6L848.6 481.6C847.9 481.6 847.3 482 847.1 482.7 846.9 483.3 847.1 484.1 847.6 484.5L849.5 486.2 851.9 488.4C852.1 488.6 852.3 488.9 852.4 489.2 852.5 489.5 852.5 489.8 852.4 490.1L850.7 495.8C850.5 496.5 850.7 497.2 851.3 497.6 851.9 498 852.6 498 853.2 497.6L858 494.2C858.6 493.8 859.3 493.8 859.9 494.2L864.7 497.6C865.3 498 866 498 866.6 497.6 867.2 497.2 867.4 496.4 867.2 495.8L865.5 490.1C865.3 489.5 865.5 488.8 866 488.4L870.4 484.6Z" fill="#FFFFFF"/></g></svg>